<svg id="图层_1" data-name="图层 1" xmlns="http://www.w3.org/2000/svg" viewBox="0 0 960 960"><defs><style>.cls-1{fill:#2b2b29;}</style></defs><path class="cls-1" d="M897.3,213.7l.53-.22q-4.3-10.5-9.47-20.44c-9.84-19.72-22.87-38.53-35.69-52l-.14.14A256.13,256.13,0,0,0,755,74C689.51,48.3,616.85,49.13,550.4,76.33a277.45,277.45,0,0,0-117,89.92A264,264,0,0,0,381.9,294.48h-.37v81.14a24.06,24.06,0,0,1-28.26,23.72c-48.56-8.75-93-22.24-130.67-40-64.1-30.19-100.87-69.77-100.87-108.6,0-37.64,34.89-76.32,95.72-106.13,61.72-30.24,143.37-48.9,232-53.22a24.12,24.12,0,0,0,23-24.53h0A24.06,24.06,0,0,0,447.25,43.3c-95.13,4.65-183.49,25-251,58.09C117.14,140.15,73.57,193.2,73.57,250.76c0,59.1,45.64,113.14,128.52,152.17,45.6,21.47,99.9,37.23,159,46.53a24.12,24.12,0,0,1,20.43,23.79V912.92A24.07,24.07,0,0,0,405.6,937h0a24.08,24.08,0,0,0,24.07-24.08V482.6a24.11,24.11,0,0,1,25.15-24.05q17.09.68,34.42.68c108.07,0,210-20,287.15-56.3,82.88-39,128.52-93.07,128.52-152.17C904.92,239.51,902.05,226.74,897.3,213.7ZM755.89,359.36c-70.82,33.34-165.52,51.71-266.64,51.71q-18.4,0-36.49-.81a24.12,24.12,0,0,1-23.08-24.06V302.09a25.81,25.81,0,0,1,.17-2.91c9.33-78.83,62.24-147,138.79-178.28,105.17-43.05,223.05-3,274.3,89.37,8.23,15.42,13.82,30.85,13.82,40.49C856.76,289.59,820,329.17,755.89,359.36Z"/><path class="cls-1" d="M520.22,639a5.3,5.3,0,0,1,.55,2.78c0,5.54-1.16,8.3-3.47,8.3H507.23a5,5,0,0,0-5,4.5l-4.73,44.68q-.27,2.92-5.75,2.92h-3.19q-5.21,0-5.2-2.82L488,655.61a5,5,0,0,0-5-5.56h-8.92a2,2,0,0,1-1.82-.86,5.36,5.36,0,0,1-.55-2.79c0-5.53,1.15-8.3,3.47-8.3H518.4A2,2,0,0,1,520.22,639Z"/><path class="cls-1" d="M557.54,639.83,572,698.5a5,5,0,0,1,.27,1.56c0,.67-.42,1.18-1.28,1.55a9.71,9.71,0,0,1-3.65.54h-4q-4.47,0-4.93-1.91L556.63,693a5,5,0,0,0-4.89-3.86H536.88a5,5,0,0,0-4.58,3l-3.69,8.17q-.9,1.9-4.37,1.91h-3.65c-3.53,0-5.3-.6-5.3-1.82a4.39,4.39,0,0,1,.55-1.83l26.55-58.67c.55-1.27,2.34-1.91,5.39-1.91h4.74C555.56,637.92,557.24,638.56,557.54,639.83ZM548.14,655a54.29,54.29,0,0,1-2,5.84L542,670a5,5,0,0,0,4.59,7.09h0a5,5,0,0,0,4.9-6.13l-2.27-10.11a33.9,33.9,0,0,1-.73-5.84Z"/><path class="cls-1" d="M635.74,638.65a2.4,2.4,0,0,1,1.18,2.19l-6.11,58.39q-.27,2.92-5.75,2.92h-3.47a10.76,10.76,0,0,1-3.6-.5,4.13,4.13,0,0,1-2.24-2l-19.34-35.31-1.19-2.1-3.83,37q-.27,2.92-5.75,2.92H583a8.06,8.06,0,0,1-4-.73,2.39,2.39,0,0,1-1.18-2.19l6.11-58.39q.27-2.93,5.75-2.92h3.92a11.13,11.13,0,0,1,3.61.5,4.11,4.11,0,0,1,2.23,2L618,674.6l1.46,2.74,3.84-36.5q.27-2.93,5.75-2.92h2.64A8.06,8.06,0,0,1,635.74,638.65Z"/><path class="cls-1" d="M520.22,748.46a5.35,5.35,0,0,1,.55,2.78q0,8.31-3.47,8.31H507.23a5,5,0,0,0-5,4.49l-4.73,44.69q-.27,2.92-5.75,2.92h-3.19q-5.21,0-5.2-2.83L488,765.1a5,5,0,0,0-5-5.55h-8.92a2,2,0,0,1-1.82-.87,5.32,5.32,0,0,1-.55-2.78c0-5.54,1.15-8.31,3.47-8.31H518.4A2,2,0,0,1,520.22,748.46Z"/><path class="cls-1" d="M557.54,749.33,572,808a5,5,0,0,1,.27,1.55c0,.67-.42,1.19-1.28,1.55a9.49,9.49,0,0,1-3.65.55h-4q-4.47,0-4.93-1.92l-1.73-7.27a5,5,0,0,0-4.89-3.86H536.88a5,5,0,0,0-4.58,3l-3.69,8.17q-.9,1.92-4.37,1.92h-3.65q-5.3,0-5.3-1.83a4.4,4.4,0,0,1,.55-1.82l26.55-58.67c.55-1.28,2.34-1.92,5.39-1.92h4.74C555.56,747.41,557.24,748.05,557.54,749.33Zm-9.4,15.14a52.78,52.78,0,0,1-2,5.84L542,779.47a5,5,0,0,0,4.59,7.09h0a5,5,0,0,0,4.9-6.13l-2.27-10.12a33.77,33.77,0,0,1-.73-5.84Z"/><path class="cls-1" d="M635.74,748.14a2.41,2.41,0,0,1,1.18,2.19l-6.11,58.4q-.27,2.92-5.75,2.92h-3.47a11,11,0,0,1-3.6-.5,4.15,4.15,0,0,1-2.24-2l-19.34-35.31-1.19-2.1-3.83,37q-.27,2.92-5.75,2.92H583a8.06,8.06,0,0,1-4-.73,2.41,2.41,0,0,1-1.18-2.19l6.11-58.4c.18-1.94,2.1-2.92,5.75-2.92h3.92a11.13,11.13,0,0,1,3.61.5,4.13,4.13,0,0,1,2.23,2L618,784.09l1.46,2.74,3.84-36.5c.18-1.94,2.1-2.92,5.75-2.92h2.64A8.18,8.18,0,0,1,635.74,748.14Z"/><path class="cls-1" d="M514.93,857.14a26,26,0,0,1,7.25,2.23c1.92,1,2.88,2,2.88,3.19a7.36,7.36,0,0,1-1.24,3.33,17.66,17.66,0,0,1-2.87,3.79,4.44,4.44,0,0,1-2.74,1.64,10.55,10.55,0,0,1-2.09-.82,25.45,25.45,0,0,0-4.57-1.46,29.56,29.56,0,0,0-6.57-.64q-8.85,0-13.5,6.39t-4.66,19q0,16,13.69,16c1,0,2,0,3-.11a5,5,0,0,0,4.54-4.48l.24-2.16a5,5,0,0,0-5-5.57H501a2,2,0,0,1-1.83-.87,5.41,5.41,0,0,1-.54-2.78q0-8.29,3.46-8.3h18.62a4.11,4.11,0,0,1,2.6.64,2.7,2.7,0,0,1,.77,2.19l-1.18,11.49c-.43,3.35-.76,6.27-1,8.76s-.45,4.47-.64,5.93q-.45,4.11-7.48,5.66a67.31,67.31,0,0,1-14.5,1.55q-13.69,0-20.31-6.34t-6.61-19.57q0-19.62,8.76-29.52t25.46-9.9A47.91,47.91,0,0,1,514.93,857.14Z"/><path class="cls-1" d="M578.71,858a5.3,5.3,0,0,1,.55,2.78c0,5.54-1.16,8.3-3.47,8.3H557.3a5,5,0,0,0-5,4.48L552,876.7a5,5,0,0,0,5,5.57h14.82a2,2,0,0,1,1.83.87,5.45,5.45,0,0,1,.55,2.78q0,8.31-3.47,8.31h-16a5,5,0,0,0-5,4.47l-.52,4.73a5,5,0,0,0,5,5.58H571.5a2,2,0,0,1,1.83.87,5.41,5.41,0,0,1,.54,2.78q0,8.3-3.46,8.3H536.83a3.91,3.91,0,0,1-2.56-.64,2.93,2.93,0,0,1-.73-2.28q.91-9.21,3-28.83t3-28.47a3.5,3.5,0,0,1,4-3.65h33.4A2,2,0,0,1,578.71,858Z"/><path class="cls-1" d="M640.85,857.64a2.39,2.39,0,0,1,1.18,2.19l-6.11,58.39q-.27,2.92-5.75,2.92H626.7a10.76,10.76,0,0,1-3.6-.5,4.13,4.13,0,0,1-2.24-2l-19.34-35.31-1.19-2.1-3.83,37q-.27,2.92-5.75,2.92h-2.64a8.06,8.06,0,0,1-4-.73,2.39,2.39,0,0,1-1.18-2.19L589,859.83q.27-2.93,5.75-2.92h3.92a11.13,11.13,0,0,1,3.61.5,4.11,4.11,0,0,1,2.23,2l18.62,34.22,1.46,2.74,3.83-36.5q.27-2.93,5.75-2.92h2.64A8.06,8.06,0,0,1,640.85,857.64Z"/><path class="cls-1" d="M697,858a5.3,5.3,0,0,1,.55,2.78c0,5.54-1.16,8.3-3.47,8.3H684a5,5,0,0,0-5,4.5l-4.73,44.68q-.27,2.92-5.75,2.92H665.3q-5.2,0-5.2-2.82l4.61-43.72a5,5,0,0,0-5-5.56h-8.92a2,2,0,0,1-1.82-.86,5.36,5.36,0,0,1-.55-2.79c0-5.53,1.15-8.3,3.47-8.3h43.25A2,2,0,0,1,697,858Z"/><circle class="cls-1" cx="625.48" cy="257.09" r="80.47"/></svg>