<?xml version="1.0" encoding="utf-8"?>
<!-- Generator: Adobe Illustrator 24.3.0, SVG Export Plug-In . SVG Version: 6.00 Build 0)  -->
<svg version="1.1" xmlns="http://www.w3.org/2000/svg" xmlns:xlink="http://www.w3.org/1999/xlink" x="0px" y="0px"
	 viewBox="0 0 960 960" style="enable-background:new 0 0 960 960;" xml:space="preserve">
<style type="text/css">
	.st0{display:none;}
	.st1{display:inline;opacity:0.32;}
	.st2{opacity:0.32;}
	.st3{fill:#302B2B;}
	.st4{fill:#2B2B29;}
	.st5{fill:#DF405D;}
</style>
<g id="图层_1" class="st0">
</g>
<g id="图层_2">
	<g>
		<polygon class="st3" points="635.1,810.4 636.5,825.8 665.4,820 699.9,811.3 686,800.6 		"/>
		<path class="st3" d="M466.9,646.2c8.8,1.5,20.1,3.1,33.3,4c4.6,0.3,18.1,1,37.3,0.8c16.6-0.2,42.4-1.6,76.3-7.8
			c0.5,4.7,1,9.3,1.5,14c-20.7,4.6-38.2,7.2-51.2,8.8c-23.2,2.8-37.3,4.4-56,1.9c-14-1.9-25.1-5.3-32.4-8
			C472.6,655.4,469.8,650.8,466.9,646.2z"/>
		<path class="st3" d="M543.7,661.9c3.7,15.5,6.4,28.1,8.1,36.4c3.9,19,4.7,24.9,8.3,34c5.4,13.8,13,23.9,18.2,30.1
			c2.2-4.8,4.4-9.7,6.6-14.5c-9.5-9.6-13-22.6-16.1-35.1c-4.1-16.3-8.3-32.6-12.4-48.9c-0.3-1.1-0.7-2.3-1.8-2.8
			c-0.8-0.4-1.8-0.3-2.8-0.2C549.1,661.1,546.4,661.4,543.7,661.9z"/>
		<path class="st3" d="M811.8,710c8.9,0.1,20.3,0,33.5-1.1c4.6-0.4,18.1-1.8,36.9-4.9c16.3-2.7,41.7-8,74.2-19.2
			c1.2,4.5,2.4,9.1,3.6,13.6c-19.8,7.6-36.7,12.9-49.3,16.4c-22.5,6.3-36.2,10.1-55.1,10.4c-14.1,0.3-25.7-1.4-33.3-3
			C818.8,718.2,815.3,714.1,811.8,710z"/>
		<path class="st3" d="M890.1,713.8c6,14.8,10.6,26.8,13.6,34.7c6.8,18.1,8.4,23.9,13.4,32.4c7.5,12.8,16.5,21.7,22.6,27
			c1.4-5.1,2.9-10.2,4.3-15.4c-10.9-8.1-16.2-20.4-21.3-32.2c-6.6-15.5-13.1-31-19.7-46.5c-0.4-1-1-2.2-2.2-2.5
			c-0.9-0.3-1.9,0-2.8,0.2C895.3,712.2,892.7,712.9,890.1,713.8z"/>
		<path class="st3" d="M640.7,738.7c0.7,5.3,1.5,10.6,2.2,15.9c-17.6-11.9-30.7-30.5-35.9-51.1c-5.3-20.6-2.7-43.2,7.1-62.1
			c7.7-14.8,20.1-26.5,37.5-18.1c6.6,3.2,11.9,8.4,16.6,14c8.9,10.4,17.9,22.3,24.6,37.7c5.2,11.7,7.5,22.3,8.5,26.9
			c0.9,3.9,1.5,7.3,1.9,9.6c-2.6,5.3-5.1,10.7-7.7,16c-5.2-20.6-13.2-40.6-23.6-59.2c-4.9-8.8-10.5-17.4-17.9-24.3
			c-3.6-3.3-7.9-6.3-12.8-6.5c-4.4-0.1-8.6,2.1-11.6,5.3c-3,3.2-5,7.2-6.5,11.3c-3,7.8-10,44.3,13.3,78.5
			C638.3,735.6,639.9,737.6,640.7,738.7z"/>
		<polygon class="st3" points="617.5,684.8 619.8,700.1 659.8,691.1 707.5,678.6 688.1,669.4 		"/>
		<path class="st3" d="M745.4,716.6c-1.9,4.3-3.8,8.7-5.7,13c-2.5-2.4-7.4-7.3-13.1-13.8c0,0-32.9-38.1-43.5-96
			c-1.4-7.4-1.8-15,2.1-21.8c5.5-9.6,18.9-12.3,29.2-8.3c10.3,4,17.7,13.2,23,22.8c6.4,13.8,11.1,28.4,17.2,42.4
			c4.5,10.3,12.5,31.8,25.3,34.2c7.1,1.3,12.8-5.3,16.2-10.7c3.5-5.5,4.3-10.8,4.6-13.2c3.7-28.6-6.4-56.6-6.4-56.6
			c-4-11.3-11.2-27.8-24.5-45.4c1.5-5,3.1-9.9,4.6-14.9c0.9,0.9,2.3,2.1,3.8,3.7c31.8,32.2,44.4,80.5,35.9,119.7
			c-5.4,24.8-16,31.3-19,32.9c-1.9,1-8.3,4.4-16.3,3.3c-5.4-0.8-9.8-3.4-13.7-6.8c-10.4-9-17.6-23.6-25.7-47
			c-5-14.7-9.5-30.2-20.2-41.5c-2.8-2.9-6-5.5-9.8-6.6c-3.8-1.1-8.3-0.5-11.2,2.3c-4.2,4.1-3,11.8-1.9,17.1
			c9.6,46.8,32.7,75.9,37.3,80.5C740.2,712.6,743.9,715.8,745.4,716.6z"/>
		<path class="st3" d="M429.4,520.4c8.8,1.5,20.1,3.1,33.3,4c4.6,0.3,18.1,1,37.3,0.8c16.6-0.2,42.4-1.6,76.3-7.8
			c0.5,4.7,1,9.3,1.5,14c-20.7,4.6-38.2,7.2-51.2,8.8c-23.2,2.8-37.3,4.4-56,1.9c-14-1.9-25.1-5.3-32.4-8
			C435.2,529.6,432.3,525,429.4,520.4z"/>
		<path class="st3" d="M506.3,536.1c3.7,15.5,6.4,28.1,8.1,36.4c3.9,19,4.7,24.9,8.3,34c5.4,13.8,13,23.9,18.2,30.1
			c2.2-4.8,4.4-9.7,6.6-14.5c-9.5-9.6-13-22.6-16.1-35.1c-4.1-16.3-8.3-32.6-12.4-48.9c-0.3-1.1-0.7-2.3-1.8-2.8
			c-0.8-0.4-1.8-0.3-2.8-0.2C511.7,535.3,508.9,535.5,506.3,536.1z"/>
		<path class="st3" d="M603.3,612.9c0.7,5.3,1.5,10.6,2.2,15.9c-17.6-11.9-30.7-30.5-35.9-51.1c-5.3-20.6-2.7-43.2,7.1-62.1
			c7.7-14.8,20.1-26.5,37.5-18.1c6.6,3.2,11.9,8.4,16.6,14c8.9,10.4,17.9,22.3,24.6,37.7c5.2,11.7,7.5,22.3,8.5,26.9
			c0.9,3.9,1.5,7.3,1.9,9.6c-2.6,5.3-5.1,10.7-7.7,16c-5.2-20.6-13.2-40.6-23.6-59.2c-4.9-8.8-10.5-17.4-17.9-24.3
			c-3.6-3.3-7.9-6.3-12.8-6.5c-4.4-0.1-8.6,2.1-11.6,5.3c-3,3.2-5,7.2-6.5,11.3c-3,7.8-10,44.3,13.3,78.5
			C600.8,609.8,602.4,611.8,603.3,612.9z"/>
		<polygon class="st3" points="580,559 582.3,574.3 622.3,565.3 670,552.8 650.6,543.6 		"/>
		<path class="st3" d="M707.9,590.7c-1.9,4.3-3.8,8.7-5.7,13c-2.5-2.4-7.4-7.3-13.1-13.8c0,0-32.9-38.1-43.5-96
			c-1.4-7.4-1.8-15,2.1-21.8c5.5-9.6,18.9-12.3,29.2-8.3c10.3,4,17.7,13.2,23,22.8c6.4,13.8,11.1,28.4,17.2,42.4
			c4.5,10.3,12.5,31.8,25.3,34.2c7.1,1.3,12.8-5.3,16.2-10.7c3.5-5.5,4.3-10.8,4.6-13.2c3.7-28.6-6.4-56.6-6.4-56.6
			c-4-11.3-11.2-27.8-24.5-45.4c1.5-5,3.1-9.9,4.6-14.9c0.9,0.9,2.3,2.1,3.8,3.7c31.8,32.2,44.4,80.5,35.9,119.7
			c-5.4,24.8-16,31.3-19,32.9c-1.9,1-8.3,4.4-16.3,3.3c-5.4-0.8-9.8-3.4-13.7-6.8c-10.4-9-17.6-23.6-25.7-47
			c-5-14.7-9.5-30.2-20.2-41.5c-2.8-2.9-6-5.5-9.8-6.6c-3.8-1.1-8.3-0.5-11.2,2.3c-4.2,4.1-3,11.8-1.9,17.1
			c9.6,46.8,32.7,75.9,37.3,80.5C702.7,586.8,706.4,590,707.9,590.7z"/>
		<path class="st3" d="M771,855.6c-1.9,4.3-3.8,8.7-5.7,13c-2.5-2.4-7.4-7.3-13.1-13.8c0,0-32.9-38.1-43.5-96
			c-1.4-7.4-1.8-15,2.1-21.8c5.5-9.6,18.9-12.3,29.2-8.3c10.3,4,17.7,13.2,23,22.8c6.4,13.8,11.1,28.4,17.2,42.4
			c4.5,10.3,12.5,31.8,25.3,34.2c7.1,1.3,12.8-5.3,16.2-10.7c3.5-5.5,4.3-10.8,4.6-13.2c3.7-28.6-6.4-56.6-6.4-56.6
			c-4-11.3-11.2-27.8-24.5-45.4c1.5-5,3.1-9.9,4.6-14.9c0.9,0.9,2.3,2.1,3.8,3.7c31.8,32.2,44.4,80.5,35.9,119.7
			c-5.4,24.8-16,31.3-19,32.9c-1.9,1-8.3,4.4-16.3,3.3c-5.4-0.8-9.8-3.4-13.7-6.8c-10.4-9-17.6-23.6-25.7-47
			c-5-14.7-9.5-30.2-20.2-41.5c-2.8-2.9-6-5.5-9.8-6.6c-3.8-1.1-8.3-0.5-11.2,2.3c-4.2,4.1-3,11.8-1.9,17.1
			c9.6,46.8,32.7,75.9,37.3,80.5C765.8,851.7,769.5,854.9,771,855.6z"/>
		<path class="st3" d="M575.1,785.1c-4.3,3.7-8.6,7.4-13,11.1c-11-5.1-20.5-8.7-27.6-11.2c-8.2-2.8-12.5-4-17.3-2.3
			c-6.7,2.3-10.1,8.4-11.2,10.4c-2.6,4.7-3.5,10.5-3.1,19.4c1,20.7,10.2,41.3,26.4,54.2c16.9,13.5,41.4,16.5,58.4,8.8
			c3.6-1.6,10.6-4.9,14.9-12.4c5-8.9,3.2-18,2.6-21.1c-0.6-3.2-3-15-12.3-19.8c-6.2-3.3-12.7-2.2-18.6-0.7
			c-13,3.4-28.8,7.7-47.1,13.1c3-5.5,6-11,8.9-16.5c15.6-7,28.9-10.7,38.6-12.7c10.8-2.3,18.1-2.4,26.1,1
			c14.9,6.2,22.9,22.9,24.1,36.9c0.2,2.3,1.5,20.6-11.6,35.1c-8.3,9.2-18.1,12.2-26.2,14.6c-5.2,1.6-20.6,6-38.7,1.6
			c-28.5-6.9-42.9-30.7-47.3-37.8c-0.9-1.5-21.1-35.7-9.4-68.9c2-5.6,5.7-15.7,14.8-19.5c6.9-2.9,13.8-0.9,22,1.8
			C546.2,775.8,560.5,780.4,575.1,785.1z"/>
		<path class="st3" d="M695.5,747.4c0.3,4.6,0.5,9.3,0.8,13.9c-10.6,0.6-19.2,2.1-25.3,3.4c-16.4,3.6-31.7,7.1-36.5,18.6
			c-0.7,1.7-1,3-1.4,5.4c-1.7,8.9,0.1,16,3,25.9c7.6,26,11.3,33.5,13.4,37.4c3.6,6.7,5.5,10.1,8.6,11.9c9.3,5.3,22.3-1,33.8-6.6
			c6-2.9,14.2-7.6,23.1-15.1c0,6.1,0,12.2,0,18.3c-5,5.2-14.5,13.9-29,18.9c-9.9,3.5-22.2,7.8-33.3,2.6c-10.5-4.9-15-17.2-24-42
			c-4.4-12.1-7.4-24.5-9.6-37.2c-1.4-8.5-3.1-17.9,0.8-26.1c7-14.9,26-19.8,45.2-24.9C677.4,748.6,688.1,747.7,695.5,747.4z"/>
	</g>
	<g>
		<circle class="st5" cx="569.6" cy="215.4" r="65.8"/>
		<path class="st4" d="M337.5,86.9c-14.1,0.5-29.7,1.7-44.5,3.4c-15,1.6-29.9,3.8-44.6,6.5c-29.5,5.3-58.4,12.7-85.4,22.8
			c-13.6,5-26.4,11-38.5,17.8c-12,6.8-23.1,14.5-32.3,23.3c-18.5,17.6-29.5,38.4-30.5,62.2c-0.8,5.9,0,12,0.2,17.9
			c0.5,2.9,1,5.7,1.4,8.6c0.5,2.8,1.6,5.5,2.3,8.2c3.5,10.8,9.1,20.7,16.8,29.8c15.2,18.3,38.8,32.4,64.4,43.2
			c25.9,10.7,54.2,18,83,23.4c14.5,2.7,29.1,4.8,43.8,6.4c7.4,0.8,14.7,1.5,22.1,2c7.2,0.5,15,0.9,21.3,1l1.6,0l2.3,0.3
			c8.4,1,18.5,1.8,27.9,2.4c9.6,0.6,19.2,1,28.8,1.3c19.2,0.5,38.5,0.5,57.7-0.3c38.4-1.6,76.3-5.7,113.3-13.2
			c37-7.4,73.1-18.2,105.2-33.8c31.9-15.5,59.5-36.6,74.6-62.5c3.6-6.5,6.8-13.2,9.1-20.2c2.2-7,3.9-14.3,4.7-21.9
			c1.7-15.1,0.5-31-3.5-46.1c-3.9-15.1-10.6-29.4-19.3-41.3c-9.1-11.4-19.3-21.6-32.7-28.4c-26.3-14.1-60.7-18.9-95.3-15.1
			c-34.5,3.3-69.9,14.1-98.9,30.6c-14.6,8.4-28.1,18.9-40.2,30.8c-6.1,6.1-11.5,11.9-17,19.3l-8.2,10.6l-7.5,11
			c-9.7,14.9-18.4,30.4-25.2,47c-1.8,4.1-3.6,8.2-5,12.5c-1.5,4.2-3.2,8.4-4.6,12.7c-2.7,8.7-5.5,17.3-7.6,26.2
			c-4.6,17.7-7.9,36-10.2,54.7c-2.5,18.7-4,37.7-5,57c-2,38.6-1.8,78.3-2.2,118.5c-0.4,40.3-1.1,81.3-4.9,122.8
			c-3.6,41.4-10.8,83.3-22.4,124.3c-3.3,10.2-6.1,20.4-9.9,30.5l-5.6,15c-0.8,2.3-2.5,5.6-3.7,8.4c-1.4,2.9-2.8,5.9-4.3,8.6
			c-12.1,21-26.2,37.3-41.5,52.2c-15.2,14.8-31.5,27.9-48.8,39.5c-8.7,5.8-17.6,11.2-26.8,16.2c-4.6,2.5-9.3,4.9-14.1,7.1
			c-2.3,1.2-4.9,2.2-7.3,3.2l-3.7,1.5l-1.9,0.7l-2.4,1l-2.8-4.8c0.2-0.6,0.1-0.9,0.5-1.5l0.9-1.8l1.9-3.5c1.3-2.3,2.5-4.6,3.8-6.9
			c2.6-4.5,5.2-8.9,7.9-13.3c5.3-8.7,10.7-17.3,16.2-25.6c10.9-16.8,22-32.9,32.5-48.8c10.3-15.8,20.6-31.5,27.5-45.8
			c0.8-1.7,1.3-3.4,2.1-5c0.7-1.8,1.5-2.9,2.2-5.4l4.7-13.2c3.2-8.7,5.6-17.8,8.4-26.7c20.1-72.3,22.5-149.7,22-229
			c-0.1-39.8-0.8-80.2,0.8-121.6c0.8-20.7,2.2-41.5,4.7-62.6c2.4-21,6-42.2,11.1-63.3c5-21.1,11.7-42.1,20.4-62.5
			c8.4-20.5,19.2-40.1,31.3-58.7l9.4-13.8l10.2-13.2c6.5-8.7,14.6-17.7,22.7-25.8c16.4-16.2,34.7-30.5,54.8-42.2
			c40.6-23,83.5-35.9,128.5-40.6c22.5-2.3,45.5-2.5,68.9,1.1c23.3,3.5,47,10.4,69.1,22.3c5.4,3.2,10.9,6.4,16.2,9.8
			c5.1,3.9,10.1,7.8,15.1,11.8c9.4,8.6,18.5,17.8,26,28.1c14.8,20.5,25,43.2,31,66.9c6,23.7,7.8,48.3,5,73
			c-1.4,12.3-4.3,24.6-8.2,36.6c-4,12-9.4,23.4-15.7,34.3c-6.5,10.7-13.9,20.7-22,29.8c-8.2,9-16.9,17.3-26,24.7
			c-18.3,14.7-38,26.5-58,36.1c-40.1,19.2-81.5,30.9-123,39.1c-41.5,8-83.5,11.8-125.1,12.9c-20.8,0.5-41.6,0.3-62.4-0.6
			c-10.4-0.5-20.8-1-31.2-1.9c-10.6-0.8-20.5-1.7-31.9-3.2l3.8,0.3c-9.3-0.3-17-0.9-25.4-1.6c-8.2-0.7-16.4-1.6-24.5-2.5
			c-16.3-2-32.5-4.6-48.7-7.8c-32.4-6.5-64.6-15.7-96.2-29.5c-15.7-7-31.3-15.3-46.2-25.5c-14.9-10.1-29.1-22.6-41.3-37.6
			c-12.1-15-21.8-32.9-27.4-51.9c-1.2-4.8-2.7-9.6-3.5-14.4l-2-14.6c-0.4-9.6-1-19.2,0.2-28.9c1.6-19.2,7-38.8,16.5-56
			c9.3-17.3,21.8-32.2,35.6-44.4c13.8-12.4,28.9-22,44.3-30.1c15.4-8.1,31.1-14.8,47-20.1c31.7-10.9,63.9-17.5,96.1-22
			c16.1-2.2,32.2-3.9,48.3-5c16.3-1.1,31.9-1.8,49-1.7V86.9z"/>
	</g>
</g>
</svg>
