<svg xmlns="http://www.w3.org/2000/svg" viewBox="0 0 873.76 939.32"><defs><style>.a{fill:#2b2b29;}.b{fill:#df405d;}</style></defs><path class="a" d="M908.93,189.8l.56-.23q-4.51-11-10-21.48c-10.35-20.73-24-40.5-37.51-54.67l-.15.14A269.23,269.23,0,0,0,759.37,43c-68.83-27-145.19-26.13-215,2.45a291.72,291.72,0,0,0-122.93,94.51A277.48,277.48,0,0,0,367.24,274.7h-.39V360a25.28,25.28,0,0,1-29.7,24.93c-51-9.2-97.74-23.38-137.33-42-67.38-31.73-106-73.33-106-114.14,0-39.56,36.67-80.21,100.6-111.54,64.87-31.78,150.69-51.39,243.8-55.94A25.32,25.32,0,0,0,462.37,35.5h0a25.28,25.28,0,0,0-26.44-24.79c-100,4.88-192.85,26.29-263.8,61.05C89,112.5,43.19,168.26,43.19,228.75c0,62.12,48,118.92,135.07,159.93,47.92,22.57,105,39.14,167.13,48.91a25.34,25.34,0,0,1,21.46,25V924.7a25.3,25.3,0,0,0,25.3,25.3h0a25.3,25.3,0,0,0,25.3-25.3V472.42a25.35,25.35,0,0,1,26.43-25.28q18,.71,36.17.71c113.59,0,220.77-21,301.81-59.17,87.1-41,135.07-97.81,135.07-159.93C916.94,216.93,913.92,203.5,908.93,189.8ZM760.31,342.89c-74.43,35.05-174,54.35-280.25,54.35q-19.33,0-38.34-.85a25.35,25.35,0,0,1-24.26-25.29V282.7a25.87,25.87,0,0,1,.18-3.05c9.8-82.86,65.41-154.45,145.87-187.38C674.05,47,797.94,89.17,851.81,186.2c8.64,16.21,14.52,32.42,14.52,42.55C866.33,269.56,827.69,311.16,760.31,342.89Z" transform="translate(-43.19 -10.68)"/><circle class="b" cx="580.06" cy="224.72" r="84.58"/></svg>