<svg id="图层_1" data-name="图层 1" xmlns="http://www.w3.org/2000/svg" viewBox="0 0 960 960"><defs><style>.cls-1{fill:#2b2b29;}</style></defs><path class="cls-1" d="M897.3,213.7l.53-.22q-4.3-10.5-9.47-20.44c-9.84-19.72-22.87-38.53-35.69-52l-.14.14A256.13,256.13,0,0,0,755,74C689.51,48.3,616.85,49.13,550.4,76.33a277.45,277.45,0,0,0-117,89.92A264,264,0,0,0,381.9,294.48h-.37v81.14a24.06,24.06,0,0,1-28.26,23.72c-48.56-8.75-93-22.24-130.67-40-64.1-30.19-100.87-69.77-100.87-108.6,0-37.64,34.89-76.32,95.72-106.13,61.72-30.24,143.37-48.9,232-53.22a24.12,24.12,0,0,0,23-24.53h0A24.06,24.06,0,0,0,447.25,43.3c-95.13,4.65-183.49,25-251,58.09C117.14,140.15,73.57,193.2,73.57,250.76c0,59.1,45.64,113.14,128.52,152.17,45.6,21.47,99.9,37.23,159,46.53a24.12,24.12,0,0,1,20.43,23.79V912.92A24.07,24.07,0,0,0,405.6,937h0a24.08,24.08,0,0,0,24.07-24.08V482.6a24.11,24.11,0,0,1,25.15-24.05q17.09.68,34.42.68c108.07,0,210-20,287.15-56.3,82.88-39,128.52-93.07,128.52-152.17C904.92,239.51,902.05,226.74,897.3,213.7ZM755.89,359.36c-70.82,33.34-165.52,51.71-266.64,51.71q-18.4,0-36.49-.81a24.12,24.12,0,0,1-23.08-24.06V302.09a25.81,25.81,0,0,1,.17-2.91c9.33-78.83,62.24-147,138.79-178.28,105.17-43.05,223.05-3,274.3,89.37,8.23,15.42,13.82,30.85,13.82,40.49C856.76,289.59,820,329.17,755.89,359.36Z"/><circle class="cls-1" cx="625.48" cy="257.09" r="80.47"/></svg>