<?xml version="1.0" encoding="utf-8"?>
<!-- Generator: Adobe Illustrator 24.3.0, SVG Export Plug-In . SVG Version: 6.00 Build 0)  -->
<svg version="1.1" id="图层_1" xmlns="http://www.w3.org/2000/svg" xmlns:xlink="http://www.w3.org/1999/xlink" x="0px" y="0px"
	 viewBox="0 0 873.8 939.3" style="enable-background:new 0 0 873.8 939.3;" xml:space="preserve">
<style type="text/css">
	.st0{fill:#2B2B29;}
	.st1{fill:#DF405D;}
</style>
<path class="st0" d="M865.7,179.1l0.6-0.2c-3-7.3-6.3-14.5-10-21.5c-10.3-20.7-24-40.5-37.5-54.7l-0.2,0.1
	c-28.2-31.2-63.3-55.4-102.5-70.6c-68.8-27-145.2-26.1-215,2.5c-48.8,19.8-91.2,52.5-122.9,94.5c-29.7,39.3-48.4,85.8-54.2,134.7
	h-0.4v85.3c0,14-11.3,25.3-25.2,25.3c-1.5,0-3-0.1-4.5-0.4c-51-9.2-97.7-23.4-137.3-42c-67.4-31.7-106-73.3-106-114.1
	c0-39.6,36.7-80.2,100.6-111.5C216.1,74.8,301.9,55.2,395,50.6c13.7-0.6,24.4-12.1,24.2-25.8l0,0c-0.3-14-11.8-25.1-25.7-24.8
	c-0.2,0-0.5,0-0.7,0c-100,4.9-192.9,26.3-263.8,61C45.8,101.8,0,157.6,0,218.1C0,280.2,48,337,135.1,378
	c47.9,22.6,105,39.1,167.1,48.9c12.3,1.9,21.4,12.5,21.5,25V914c0,14,11.3,25.3,25.3,25.3l0,0c14,0,25.3-11.3,25.3-25.3V461.7
	c0-14,11.4-25.3,25.4-25.3c0.3,0,0.7,0,1,0c12,0.5,24.1,0.7,36.2,0.7c113.6,0,220.8-21,301.8-59.2c87.1-41,135.1-97.8,135.1-159.9
	C873.8,206.2,870.7,192.8,865.7,179.1z M717.1,332.2c-74.4,35-174,54.4-280.2,54.4c-12.9,0-25.7-0.3-38.3-0.9
	c-13.5-0.6-24.2-11.7-24.3-25.3V272c0-1,0.1-2,0.2-3c9.8-82.9,65.4-154.5,145.9-187.4c110.5-45.3,234.4-3.1,288.3,93.9
	c8.6,16.2,14.5,32.4,14.5,42.6C823.1,258.9,784.5,300.5,717.1,332.2z"/>
<circle class="st1" cx="580.1" cy="224.7" r="84.6"/>
<path class="st0" d="M459.6,625.4c0.4,0.9,0.6,1.8,0.5,2.8c0,5.5-1.2,8.3-3.5,8.3h-10.1c-2.6,0-4.7,1.9-5,4.5l-4.7,44.7
	c-0.2,1.9-2.1,2.9-5.8,2.9H428c-3.5,0-5.2-0.9-5.2-2.8l4.6-43.8c0.3-2.7-1.7-5.2-4.4-5.5c-0.2,0-0.4,0-0.6,0h-8.9
	c-0.7,0.1-1.4-0.3-1.8-0.9c-0.4-0.9-0.6-1.8-0.5-2.8c0-5.5,1.1-8.3,3.5-8.3h43.2C458.5,624.5,459.2,624.8,459.6,625.4z"/>
<path class="st0" d="M496.9,626.2l14.5,58.7c0.2,0.5,0.3,1,0.3,1.6c0,0.7-0.4,1.2-1.3,1.5c-1.2,0.4-2.4,0.6-3.7,0.5h-4
	c-3,0-4.6-0.6-4.9-1.9l-1.8-7.2c-0.5-2.3-2.6-3.9-4.9-3.9h-14.9c-2,0-3.8,1.2-4.6,3l-3.7,8.2c-0.6,1.3-2.1,1.9-4.4,1.9H460
	c-3.5,0-5.3-0.6-5.3-1.8c0-0.6,0.2-1.3,0.5-1.8l26.5-58.7c0.5-1.3,2.3-1.9,5.4-1.9h4.7C495,624.3,496.6,625,496.9,626.2z
	 M487.5,641.4c-0.6,2-1.2,3.9-2,5.8l-4.1,9.2c-1.2,2.5-0.1,5.5,2.5,6.6c0.7,0.3,1.4,0.5,2.1,0.5l0,0c2.8,0,5-2.2,5-5
	c0-0.4,0-0.8-0.1-1.2l-2.3-10.1c-0.4-1.9-0.7-3.9-0.7-5.8L487.5,641.4z"/>
<path class="st0" d="M575.1,625.1c0.8,0.5,1.2,1.3,1.2,2.2l-6.1,58.4c-0.2,1.9-2.1,2.9-5.8,2.9H561c-1.2,0-2.4-0.1-3.6-0.5
	c-1-0.4-1.8-1.1-2.2-2l-19.3-35.3l-1.2-2.1l-3.8,37c-0.2,1.9-2.1,2.9-5.8,2.9h-2.6c-1.4,0.1-2.8-0.1-4-0.7c-0.8-0.5-1.2-1.3-1.2-2.2
	l6.1-58.4c0.2-2,2.1-2.9,5.8-2.9h3.9c1.2,0,2.4,0.1,3.6,0.5c1,0.4,1.8,1.1,2.2,2l18.6,34.2l1.5,2.7l3.8-36.5c0.2-2,2.1-2.9,5.8-2.9
	h2.6C572.5,624.2,573.9,624.5,575.1,625.1z"/>
<path class="st0" d="M459.6,734.9c0.4,0.9,0.6,1.8,0.5,2.8c0,5.5-1.2,8.3-3.5,8.3h-10.1c-2.6,0-4.7,1.9-5,4.5l-4.7,44.7
	c-0.2,1.9-2.1,2.9-5.8,2.9H428c-3.5,0-5.2-0.9-5.2-2.8l4.6-43.7c0.3-2.7-1.7-5.2-4.4-5.5c-0.2,0-0.4,0-0.6,0h-8.9
	c-0.7,0.1-1.4-0.3-1.8-0.9c-0.4-0.9-0.6-1.8-0.5-2.8c0-5.5,1.1-8.3,3.5-8.3h43.2C458.5,733.9,459.2,734.3,459.6,734.9z"/>
<path class="st0" d="M496.9,735.7l14.5,58.7c0.2,0.5,0.3,1,0.3,1.5c0,0.7-0.4,1.2-1.3,1.5c-1.2,0.4-2.4,0.6-3.7,0.5h-4
	c-3,0-4.6-0.6-4.9-1.9l-1.7-7.3c-0.5-2.3-2.6-3.9-4.9-3.9h-14.9c-2,0-3.8,1.2-4.6,3l-3.7,8.2c-0.6,1.3-2.1,1.9-4.4,1.9H460
	c-3.5,0-5.3-0.6-5.3-1.8c0-0.6,0.2-1.3,0.5-1.8l26.5-58.7c0.5-1.3,2.3-1.9,5.4-1.9h4.7C495,733.8,496.6,734.5,496.9,735.7z
	 M487.5,750.9c-0.6,2-1.2,3.9-2,5.8l-4.1,9.2c-1.2,2.5-0.1,5.5,2.5,6.6c0.7,0.3,1.4,0.5,2.1,0.5l0,0c2.8,0,5-2.2,5-5
	c0-0.4,0-0.8-0.1-1.2l-2.3-10.1c-0.4-1.9-0.7-3.9-0.7-5.8L487.5,750.9z"/>
<path class="st0" d="M575.1,734.6c0.8,0.5,1.2,1.3,1.2,2.2l-6.1,58.4c-0.2,1.9-2.1,2.9-5.8,2.9H561c-1.2,0-2.4-0.1-3.6-0.5
	c-1-0.4-1.8-1.1-2.2-2l-19.3-35.3l-1.2-2.1l-3.8,37c-0.2,1.9-2.1,2.9-5.8,2.9h-2.6c-1.4,0.1-2.8-0.1-4-0.7c-0.8-0.5-1.2-1.3-1.2-2.2
	l6.1-58.4c0.2-1.9,2.1-2.9,5.8-2.9h3.9c1.2,0,2.4,0.1,3.6,0.5c1,0.4,1.8,1.1,2.2,2l18.6,34.2l1.5,2.7l3.8-36.5
	c0.2-1.9,2.1-2.9,5.8-2.9h2.6C572.5,733.7,573.9,734,575.1,734.6z"/>
<path class="st0" d="M454.3,843.6c2.5,0.4,5,1.1,7.2,2.2c1.9,1,2.9,2,2.9,3.2c-0.1,1.2-0.6,2.3-1.2,3.3c-0.8,1.4-1.7,2.7-2.9,3.8
	c-0.7,0.9-1.7,1.5-2.7,1.6c-0.7-0.2-1.4-0.5-2.1-0.8c-1.5-0.6-3-1.1-4.6-1.5c-2.2-0.5-4.4-0.7-6.6-0.6c-5.9,0-10.4,2.1-13.5,6.4
	s-4.7,10.6-4.7,19c0,10.7,4.6,16,13.7,16c1,0,2,0,3-0.1c2.4-0.2,4.3-2.1,4.5-4.5l0.2-2.2c0.3-2.7-1.7-5.2-4.4-5.5
	c-0.2,0-0.4,0-0.6,0h-2.3c-0.7,0.1-1.4-0.3-1.8-0.9c-0.4-0.9-0.6-1.8-0.5-2.8c0-5.5,1.2-8.3,3.5-8.3h18.6c0.9-0.1,1.8,0.1,2.6,0.6
	c0.6,0.6,0.9,1.4,0.8,2.2l-1.2,11.5c-0.4,3.3-0.8,6.3-1,8.8s-0.5,4.5-0.6,5.9c-0.3,2.7-2.8,4.6-7.5,5.7c-4.8,1-9.6,1.6-14.5,1.5
	c-9.1,0-15.9-2.1-20.3-6.3c-4.4-4.2-6.6-10.8-6.6-19.6c0-13.1,2.9-22.9,8.8-29.5c5.8-6.6,14.3-9.9,25.5-9.9
	C448.8,842.8,451.6,843.1,454.3,843.6z"/>
<path class="st0" d="M518.1,844.4c0.4,0.9,0.6,1.8,0.5,2.8c0,5.5-1.2,8.3-3.5,8.3h-18.5c-2.6,0-4.7,1.9-5,4.5l-0.3,3.1
	c-0.3,2.7,1.7,5.2,4.4,5.5c0.2,0,0.4,0,0.6,0h14.8c0.7-0.1,1.4,0.3,1.8,0.9c0.4,0.9,0.6,1.8,0.5,2.8c0,5.5-1.2,8.3-3.5,8.3h-16
	c-2.6,0-4.7,1.9-5,4.5l-0.5,4.7c-0.3,2.7,1.6,5.2,4.4,5.5c0.2,0,0.4,0,0.6,0h17.3c0.7-0.1,1.4,0.3,1.8,0.9c0.4,0.9,0.6,1.8,0.5,2.8
	c0,5.5-1.2,8.3-3.5,8.3h-33.6c-0.9,0.1-1.8-0.1-2.6-0.6c-0.6-0.6-0.8-1.5-0.7-2.3c0.6-6.1,1.6-15.8,3-28.8s2.4-22.6,3-28.5
	c-0.1-1.9,1.4-3.6,3.3-3.7c0.2,0,0.5,0,0.7,0h33.4C517,843.5,517.7,843.8,518.1,844.4z"/>
<path class="st0" d="M580.2,844.1c0.8,0.5,1.2,1.3,1.2,2.2l-6.1,58.4c-0.2,1.9-2.1,2.9-5.8,2.9h-3.5c-1.2,0-2.4-0.1-3.6-0.5
	c-1-0.4-1.8-1.1-2.2-2l-19.3-35.3l-1.2-2.1l-3.8,37c-0.2,1.9-2.1,2.9-5.8,2.9h-2.6c-1.4,0.1-2.8-0.1-4-0.7c-0.8-0.5-1.2-1.3-1.2-2.2
	l6.1-58.4c0.2-2,2.1-2.9,5.8-2.9h3.9c1.2,0,2.4,0.1,3.6,0.5c1,0.4,1.8,1.1,2.2,2l18.6,34.2l1.5,2.7l3.8-36.5c0.2-2,2.1-2.9,5.8-2.9
	h2.6C577.6,843.2,579,843.5,580.2,844.1z"/>
<path class="st0" d="M636.4,844.4c0.4,0.9,0.6,1.8,0.5,2.8c0,5.5-1.2,8.3-3.5,8.3h-10.1c-2.6,0-4.7,1.9-5,4.5l-4.7,44.7
	c-0.2,1.9-2.1,2.9-5.8,2.9h-3.2c-3.5,0-5.2-0.9-5.2-2.8l4.6-43.7c0.3-2.7-1.7-5.2-4.4-5.5c-0.2,0-0.4,0-0.6,0h-8.9
	c-0.7,0.1-1.4-0.3-1.8-0.9c-0.4-0.9-0.6-1.8-0.5-2.8c0-5.5,1.2-8.3,3.5-8.3h43.2C635.3,843.5,636,843.8,636.4,844.4z"/>
</svg>
