<?xml version="1.0" encoding="utf-8"?>
<!-- Generator: Adobe Illustrator 24.3.0, SVG Export Plug-In . SVG Version: 6.00 Build 0)  -->
<svg version="1.1" xmlns="http://www.w3.org/2000/svg" xmlns:xlink="http://www.w3.org/1999/xlink" x="0px" y="0px"
	 viewBox="0 0 960 960" style="enable-background:new 0 0 960 960;" xml:space="preserve">
<style type="text/css">
	.st0{display:none;}
	.st1{display:inline;opacity:0.32;}
	.st2{opacity:0.32;}
	.st3{fill:#302B2B;}
	.st4{fill:#2B2B29;}
	.st5{fill:#DF405D;}
</style>
<g id="图层_1" class="st0">
</g>
<g id="图层_2">
	<g>
		<circle class="st5" cx="645" cy="212.5" r="67.3"/>
		<path class="st4" d="M407.6,81.1c-14.5,0.5-30.3,1.8-45.5,3.4c-15.3,1.7-30.5,3.9-45.6,6.6c-30.1,5.4-59.7,13-87.3,23.4
			c-13.9,5.1-27,11.3-39.3,18.2c-12.3,6.9-23.7,14.8-33,23.8c-18.9,18-30.1,39.2-31.2,63.6c-0.8,6,0,12.2,0.2,18.3
			c0.5,2.9,1,5.9,1.4,8.8c0.6,2.9,1.6,5.6,2.3,8.4c3.6,11,9.3,21.2,17.2,30.5c15.5,18.8,39.7,33.2,65.8,44.2
			c26.4,11,55.4,18.4,84.9,24c14.8,2.7,29.8,4.9,44.8,6.5c7.5,0.8,15,1.5,22.6,2c7.3,0.5,15.4,0.9,21.8,1.1l1.6,0l2.3,0.3
			c8.6,1,18.9,1.8,28.5,2.4c9.8,0.6,19.6,1.1,29.4,1.4c19.7,0.6,39.4,0.5,59-0.3c39.2-1.6,78-5.8,115.9-13.5
			c37.8-7.6,74.8-18.6,107.5-34.6c32.7-15.9,60.9-37.4,76.2-63.9c3.7-6.7,7-13.5,9.3-20.7c2.2-7.2,4-14.6,4.8-22.4
			c1.7-15.5,0.5-31.7-3.5-47.1c-4-15.5-10.8-30.1-19.7-42.3c-9.3-11.7-19.7-22-33.4-29c-26.9-14.4-62.1-19.3-97.5-15.4
			C631.8,82,595.7,93.1,565.9,110c-14.9,8.6-28.8,19.3-41.1,31.5c-6.2,6.2-11.8,12.1-17.4,19.7l-8.4,10.8l-7.7,11.3
			c-9.9,15.2-18.8,31.1-25.8,48.1c-1.9,4.2-3.7,8.4-5.1,12.8c-1.6,4.3-3.3,8.6-4.7,13c-2.7,8.9-5.6,17.6-7.8,26.8
			c-4.7,18.1-8.1,36.8-10.5,56c-2.5,19.1-4.1,38.6-5.1,58.3c-2.1,39.5-1.9,80-2.2,121.2c-0.4,41.2-1.1,83.1-5,125.5
			c-3.6,42.4-11,85.2-22.9,127.1c-3.3,10.4-6.3,20.9-10.2,31.1l-5.7,15.4c-0.8,2.3-2.5,5.7-3.8,8.6c-1.4,2.9-2.8,6-4.4,8.8
			c-12.4,21.5-26.8,38.2-42.4,53.4c-15.6,15.2-32.2,28.5-49.9,40.4c-8.9,5.9-18,11.5-27.4,16.6c-4.7,2.5-9.5,5-14.4,7.3
			c-2.4,1.2-5,2.2-7.5,3.3l-3.8,1.6l-1.9,0.7l-2.4,1l-2.8-4.9c0.2-0.6,0.1-0.9,0.5-1.5l0.9-1.8l2-3.5c1.3-2.4,2.5-4.7,3.9-7
			c2.6-4.6,5.4-9.1,8.1-13.6c5.5-8.9,11-17.7,16.6-26.2c11.1-17.1,22.5-33.7,33.2-49.9c10.5-16.2,21.1-32.2,28.1-46.8
			c0.8-1.8,1.4-3.5,2.2-5.1c0.7-1.8,1.5-2.9,2.3-5.5l4.8-13.5c3.3-8.9,5.7-18.2,8.6-27.3c20.5-73.9,23-153,22.5-234.2
			c-0.1-40.7-0.9-82,0.8-124.3c0.8-21.1,2.2-42.5,4.8-64c2.4-21.5,6.1-43.2,11.4-64.8c5.1-21.6,12-43.1,20.8-63.9
			c8.6-20.9,19.6-41,32-60l9.6-14.1l10.4-13.5c6.6-8.9,14.9-18.1,23.2-26.3c16.8-16.6,35.5-31.2,56-43.1
			c41.5-23.5,85.4-36.7,131.4-41.5c23-2.3,46.6-2.6,70.5,1.1c23.8,3.6,48,10.6,70.7,22.8c5.6,3.3,11.2,6.5,16.6,10
			c5.2,3.9,10.3,8,15.4,12c9.6,8.8,18.9,18.2,26.6,28.7c15.1,21,25.6,44.2,31.7,68.4c6.1,24.2,8,49.4,5.1,74.6
			c-1.4,12.6-4.4,25.2-8.4,37.4c-4.1,12.3-9.7,24-16.1,35.1c-6.6,10.9-14.2,21.2-22.5,30.5c-8.4,9.2-17.3,17.7-26.6,25.2
			c-18.7,15.1-38.8,27.1-59.3,36.9c-41,19.6-83.4,31.6-125.7,39.9c-42.4,8.2-85.4,12.1-127.9,13.2c-21.3,0.5-42.5,0.3-63.8-0.6
			c-10.6-0.5-21.2-1.1-31.9-1.9c-10.8-0.8-20.9-1.8-32.6-3.3l3.9,0.3c-9.5-0.3-17.4-0.9-26-1.6c-8.4-0.7-16.7-1.6-25.1-2.6
			c-16.7-2-33.2-4.7-49.8-7.9c-33.1-6.6-66.1-16-98.4-30.1c-16.1-7.2-32-15.7-47.3-26.1c-15.2-10.3-29.8-23.1-42.2-38.5
			c-12.4-15.3-22.3-33.6-28.1-53.1c-1.2-4.9-2.7-9.8-3.6-14.7l-2-14.9c-0.4-9.9-1-19.6,0.2-29.5c1.7-19.6,7.2-39.7,16.9-57.3
			c9.5-17.7,22.3-32.9,36.4-45.4c14.1-12.7,29.6-22.5,45.3-30.8c15.7-8.3,31.8-15.1,48.1-20.6c32.4-11.2,65.4-17.8,98.2-22.5
			c16.4-2.3,32.9-4,49.4-5.1c16.6-1.1,32.6-1.8,50.1-1.7V81.1z"/>
	</g>
</g>
</svg>
