<svg xmlns="http://www.w3.org/2000/svg" viewBox="0 0 96 96"><defs><style>.a{fill:#2b2b29;}</style></defs><path class="a" d="M7,23V73H31.19c2.24,0,17.65-.46,17.65-14.53,0-8.8-6.05-11.79-9.12-12.67a10.76,10.76,0,0,0,6.76-10.39c0-3.78-.54-12.42-16-12.42Zm55.08,4.65v4.56H80.77V27.65ZM18,31.53H28.32c1,0,7.52-.52,7.52,5.75,0,5.35-4.73,5.91-6.68,5.91H18ZM71.9,36.35c-14.11,0-17.06,12.25-17.06,17.57,0,15.76,12.93,17.56,17.06,17.56,11.16,0,14.33-7.22,15.63-11.23H79.42a7.78,7.78,0,0,1-7.18,4.39c-7.54,0-8.19-5.89-8.19-8.53H88C88.52,47,84.53,36.35,71.9,36.35Zm-.25,6.84a6.74,6.74,0,0,1,5.15,1.86,9.13,9.13,0,0,1,2.12,5.32H64.05a10.66,10.66,0,0,1,.42-2.2,6.47,6.47,0,0,1,1.18-2.36A7.54,7.54,0,0,1,68,44,7.72,7.72,0,0,1,71.65,43.19ZM18,50.71H29.92c2.37,0,7.94.37,7.94,7.18,0,6.59-7,6.58-8.11,6.58H18Z"/></svg>