<?xml version="1.0" encoding="utf-8"?>
<!-- Generator: Adobe Illustrator 24.3.0, SVG Export Plug-In . SVG Version: 6.00 Build 0)  -->
<svg version="1.1" id="图层_1" xmlns="http://www.w3.org/2000/svg" xmlns:xlink="http://www.w3.org/1999/xlink" x="0px" y="0px"
	 viewBox="0 0 23.4 24" style="enable-background:new 0 0 23.4 24;" xml:space="preserve">
<style type="text/css">
	.st0{fill:#FFFFFF;}
</style>
<path id="FontAwsome_arrow-down_" class="st0" d="M9.9,1.9l1.2-1.2c0.5-0.5,1.3-0.5,1.8,0c0,0,0,0,0,0l10.4,10.4
	c0.5,0.5,0.5,1.3,0,1.8c0,0,0,0,0,0L12.9,23.3c-0.5,0.5-1.3,0.5-1.8,0c0,0,0,0,0,0l-1.2-1.2c-0.5-0.5-0.5-1.3,0-1.8c0,0,0,0,0,0
	l6.5-6.1H1c-0.7,0-1.3-0.6-1.3-1.3c0,0,0,0,0,0v-1.7c0-0.7,0.6-1.3,1.3-1.3c0,0,0,0,0,0h15.4L9.9,3.7C9.4,3.2,9.4,2.4,9.9,1.9
	C9.9,1.9,9.9,1.9,9.9,1.9L9.9,1.9z"/>
</svg>
